<svg version="1.1" class="stadtteile" xmlns="http://www.w3.org/2000/svg" xmlns:xlink="http://www.w3.org/1999/xlink" x="0px" y="0px"
	 viewBox="0 0 1270.8236 1068.3188" enable-background="new 0 0 1270.8236 1068.3188" xml:space="preserve">
<path class="bavenstedt" fill="#A1A1A1" stroke="#FFFFFF" stroke-width="4" stroke-miterlimit="3.864" d="M839.209,68.2115
	c10.4959-1.1012,3.8818-15.9711,2.796-23.6452c-1.5477-10.9386-3.0953-21.8772-4.643-32.8157
	c7.6919-0.0762,13.2557-0.3821,20.5918-2.3846c8.3786-2.287,16.4474-1.8122,24.7629-4.1877
	c7.7321-2.2087,21.2258-6.1138,28.1376,0.4709c2.0471,1.9501,2.1677,5.8909,2.7639,9.7659
	c2.8149,18.2949,5.6299,36.5897,8.4448,54.8846c0.7966,5.177,0.3355,15.4243,3.076,19.9912
	c2.5295,4.2154,5.669,2.9936,11.7189,3.3948c-0.6165,3.9622-5.1127,17.3715-3.2,20.5649c1.0063,1.6801,8.2709,3.0564,10.0381,3.7095
	c18.4609,6.822,36.9219,13.644,55.3828,20.466c15.6896,5.7979,31.3356,11.7353,47.0754,17.3961
	c9.4559,3.4008,23.3273,11.5991,33.2186,9.7763c0.4116,13.029,0.8234,26.058,1.235,39.087
	c-11.5033,0.2829-21.0127,1.0298-31.1736,2.0338c-13.3351,1.3176-29.0762-0.5013-41.4495,4.542
	c-6.9276,2.8237-12.9041,8.0152-19.8538,10.7808c-4.9337,1.9634-11.6688,1.4412-13.2932,5.7646
	c-2.1389,5.6931,2.3109,19.4429,3.0283,25.4788c0.3879,3.2643,2.3482,9.0273,1.4449,12.1578
	c-0.6536,2.2654-3.912,2.499-4.256,4.5342c0.8074,0.7973,1.7333,0.8205,2.7776,0.0695c1.4733,0.8175,1.4354,2.1152-0.1137,3.8931
	c0.4279,4.7583-3.3118,11.5207-3.7969,16.4925c-0.7646,7.8356,0.367,15.8729,1.2097,23.6575
	c0.7255,6.7025,0.4114,15.5735,2.7512,21.9225c1.7247,4.6799,1.8233,4.185,4.9751,7.5478
	c-17.1926,0.521-34.3516,1.0373-51.5029,2.0583c-6.4896,0.3864-6.6096,1.0444-9.9499-4.7887
	c-3.3406-5.8337-4.985-7.5014-10.4802-10.3272c-3.4733-1.7861-3.7656,0.2095-6.5648-3.5334
	c-1.1226-1.5012-1.3585-4.2056-1.9044-5.9556c-1.653-5.299-3.071-10.6718-4.7207-15.9728
	c-14.621-46.9832-31.4683-93.4527-56.3771-135.2936c1.6202,0.4509,3.6486-0.4032,5.313-0.125
	c-1.8127-23.4583-3.6254-46.9167-5.438-70.375c0.9166-0.0206,1.8333-0.0413,2.75-0.0619
	C842.3916,88.8609,840.8003,78.5362,839.209,68.2115z"/>
<path class="achtum-uppen" fill="#A1A1A1" stroke="#FFFFFF" stroke-width="4" stroke-miterlimit="3.864" d="
	M1079.609,659.7476c-2.8121-1.6204-10.4067-3.9846-12.1517-6.5322c-1.327-1.9373-0.1311-4.769-0.9733-7.0928
	c-1.7037-4.7009-9.9016-12.1823-14.0828-14.3766c-6.8365-3.588-16.4589-4.494-23.97-6.566
	c-9.8218-2.7095-19.6423-5.4237-29.4672-8.1223c-11.8367-3.2511-23.5151-5.172-35.648-7.1683
	c-5.8621-0.9645-21.2187-0.2808-23.575-4.7115c-2.3625-4.4426,2.7275-18.1031,3.6179-22.9933
	c-7.236,0.6498-24.1896,4.6683-27.6732-1.0667c-3.6294-5.9752,0.858-5.8787-5.6803-8.8196
	c-4.1376-1.8611-7.7746-0.1133-9.2236-3.8931c-3.0479-7.9506,14.4941-23.9414,16.5109-32.7379
	c2.8749-12.54,4.3651-25.5728,6.4505-38.2616c2.0095-12.2272,3.8289-11.3977-8.5309-13.9035
	c-9.7289-1.9724-7.3878-2.5633-7.9239-11.8247c-0.3007-5.1951-4.5065-24.1538-1.6166-27.93
	c4.1891-5.4738,29.7505-0.4132,35.25,0.062c-6.4879-20.098-12.9938-40.1939-19.2521-60.3647
	c-1.121-3.6129-2.6704-7.3597-3.3438-11.0918c-1.5867-8.7951,4.019-7.9679,6.101-14.8764c2.547-8.4513-4.756-9.3799,5.2215-11.646
	c6.4585-1.4669,13.6257-1.1693,20.2104-1.2711c-8.397,1.8071-6.0846,4.6046-5.6163,12.5068
	c0.2919,4.9259-1.4968,19.4474,1.3891,23.4406c4.2021,5.8146,26.696,7.9256,34.2902,9.9905
	c-0.1877-6.5833-0.3754-13.1667-0.563-19.75c35.1354,0.1568,70.2709,0.3135,105.4062,0.4703
	c4.7402,0.0211,14.4468-1.8888,18.8342,0.084c4.2897,1.9288,5.197,9.6324,6.027,14.8433
	c0.7787,4.8892-1.6189,22.8604,1.7325,25.8524c2.8584,2.5519,19.382-0.1534,23.625-0.187
	c-0.0206,6.1663-0.0414,12.3326-0.062,18.499c4.3253-0.0821,14.3138,1.6664,18.0277-0.3423
	c3.2197-1.7415,1.7212-7.6181,1.7212-12.0947c19.125,3.3957,38.25,6.7914,57.375,10.187c-1.3123,5.146-2.6246,10.292-3.9369,15.438
	c0.828,0.0613,1.6559,0.1227,2.4839,0.184c-2.0265,11.4509-2.6783,22.6543-5.4253,34.0699
	c-2.5886,10.7571-7.7896,16.5653-13.8036,25.45c-3.6792,5.4353-10.969,19.775-8.1299,26.1124
	c2.1389,4.7744,5.7096,0.8076,7.7363,3.0443c0.9656,1.0656,1.162,5.6483,1.4235,6.9188c1.7367,8.4419,2.0096,26.328,7.6117,32.53
	c3.9475,4.3702,14.5938,7.1047,19.9015,9.6886c4.679,2.2778,8.9417,5.03,14.3059,5.0671c-1.368,2.0406-2.736,4.0813-4.104,6.122
	c6.396,1.2851,27.3076,2.3761,30.0409,7.066c2.6094-1.0717,5.5656-1.3256,8.3341-0.7531c-0.8794,4.5338-0.4603,5.32-3.4988,7.2682
	c-2.7271,1.7485-9.5677-0.2049-11.6893,2.1068c-2.7112,2.954,1.3689,15.2613-0.1869,20
	c-8.0645-2.3912-14.1851-5.9092-20.4961-11.4969c-0.147,7.0406-0.2939,14.0813-0.4409,21.1219
	c-4.1718-5.6459-18.1464-1.3307-22.4829,2.6524c-3.7271,3.4234-5.0898,11.222-6.9252,16.2438
	c-1.7649,4.8289-3.7772,8.3237-2.8605,12.8677c1.1846,5.8723,7.0863,12.8988,10.0186,18.2361
	c-13.4393,1.7904-26.8806,5.9021-40.5045,3.1005c-12.3878-2.5474-25.1727-6.0643-36.9742-10.5866
	c-17.5345-6.7193-36.0209-13.0101-52.8783-20.6308L1079.609,659.7476z"/>
<path class="marienburger-hoehe-galgenberg" fill="#A1A1A1" stroke="#FFFFFF" stroke-width="4" stroke-miterlimit="3.864" d="
	M906.623,480.4985c-33.7823-7.0326-69.017-14.8831-103.6426-15.891c-8.7131-0.2536-16.9833,1.1353-25.5845,2.453
	c-9.3936,1.439-9.9689,1.6948-14.0114,10.6862c-2.0883,4.6448-4.1719,9.2917-6.2397,13.9457
	c-7.5251,16.9377-13.0059,32.3834-14.1572,50.5217c-2.8165,44.3702,12.6732,90.6133,19.5468,134.3018
	c1.5375,9.7719,7.8521,16.1291,13.9948,23.8636c4.9154,6.1893,14.3574,22.2658,21.6246,24.7822
	c4.1804,1.4475,5.2576-2.17,10.1199-2.6206c5.4628-0.5063,13.7205,3.5458,19.0018,4.9107c8.4059,2.1724,6.3696,1.1935,9.0815-7.0043
	c1.0346-3.1276,2.3908-10.8589,4.3622-13.5838c3.64-5.0311,10.9775-4.3755,15.889-6.3687c2.2614-0.9177,3.4286-2.6721,6.2975-4.0682
	c0.9177-0.4466,1.6772-2.1001,2.5428-2.2853c2.8917-0.6188,1.67,2.4987,3.4103,2.2939c-1.1208,0.1318,5.5597-5.2687,5.412-5.0991
	c2.2951-2.6364,3.6426-3.1439,4.2354-6.6426c1.153-6.8058-2.718-7.149-8.3344-10.9453c8.8305-7.578,9.7111-9.179,10.0625-17.875
	c0.2095-5.1859,1.5251-7.5089,0.2044-13.2745c-1.1309-4.9365-2.4523-9.8352-3.7669-14.7255
	c11.9989-1.8992,14.8512,1.5604,25.2613,8.0944c9.6419,6.0519,19.2838,12.1038,28.9257,18.1556
	c4.1656-8.5084,7.6946-18.0134,12.7429-26.0274c4.2908-6.8114,10.7893-12.6748,16.132-18.7226
	c-4.6653-1.0434-9.6951-0.6475-14.2537-1.8253c-6.0933-1.5743-5.4155-0.447-5.3553-6.7987
	c0.0574-6.0582,2.1511-12.6176,3.234-18.564c-6.8649,0.6161-13.9813,1.8363-20.8829,1.6331
	c-11.3748-0.3348-2.3105-4.6362-8.4705-10.6346c-3.697-3.6-11.3832,0.3365-13.2236-4.7779
	c-2.912-8.0926,12.8292-20.27,15.515-27.5327c4.9909-13.496,5.3209-30.5165,7.6465-44.6801
	c0.7156-4.3582,2.494-8.5355,0.1237-10.8952C923.017,484.2526,905.4817,482.6237,906.623,480.4985
	C902.8569,479.7145,906.369,480.9715,906.623,480.4985z"/>
<path class="itzum-marienburg" fill="#A1A1A1" stroke="#FFFFFF" stroke-width="4" stroke-miterlimit="3.864" d="
	M1079.5649,659.8815c-4.752,14.3943-11.193,29.0787-12.4421,44.2712c-1.317,16.0184-3.6681,32.0011-4.7639,48.0338
	c9.9607-0.5891,6.7482,8.3499,7,16.375c-9.718-2.4628-15.1045-2.1874-24,1.625c7.9025,3.4229,0.5099,14.4219-1.4358,20.1667
	c-2.421,7.1484,0.2441,8.5519-0.1223,15.4327c-0.1816,3.4097-1.2303,11.2565-2.9954,14.2592
	c-2.2368,3.8054-2.5272,0.5216-5.0007,3.3524c-2.1832,2.4985-1.7717,0.9858-2.6838,6.3477
	c-0.8203,4.8224-0.0349,10.364-1.3431,15.0727c-1.5209,5.4739-5.1149,7.5856-7.3364,13.1616
	c-1.4145,3.5505-4.1465,10.3333-3.8343,14.0994c0.3925,4.7337-0.7116,1.9289,4.2115,4.9667
	c6.9175,4.2686,11.1809,3.0713,8.4747,12.5217c-1.0684,3.7307-1.5715,9.2991-3.6611,12.6312
	c-3.6555,5.8291-5.5686,3.4423-12.0862,0.988c-1.333,4.4166-2.666,8.8333-3.999,13.25c-1.4084-1.4667-5.0519-4.608-6.3595-2.172
	c-0.7356,1.3704,4.9851,6.4119,6.0847,7.6194c5.6404,6.1937,14.2903,12.347,18.6698,19.3369
	c2.8868,4.6074,3.2313,1.6231,1.1682,7.3551c-2.1372,5.9377-7.8425,8.002-13.0012,10.4227
	c-3.6939,1.7332-8.9988,5.1549-13.3164,5.2661c-7.9875,0.2057-6.7098-3.5767-11.6367-8.629
	c-7.955-8.1576-12.8372-5.1484-21.8428-2.1281c-8.1403,2.73-12.7865-1.2413-20.3177-3.3715
	c-10.4141-2.9456-17.3764-12.548-26.1994-18.4495c-3.7812-2.5292-8.9047-2.8547-12.375-6c-4.1953-3.8025-5.0294-10.2312-7.5-15.188
	c-7.8724,4.7795-10.091,26.153-13.062,34.563c-10.2289-15.4289-13.4272-31.9459-28.125-44.563
	c-12.3416-10.5945-25.1509-20.2515-36.4448-32.0003c-19.3451-20.1243-38.415-40.4583-58.0265-60.3248
	c-6.5273-6.6122-4.5694-5.8057,1.8436-12.4712c8.3349-8.6631,16.6698-17.3262,25.0046-25.9892
	c0.9741-1.0125,5.2338-4.1374,5.498-5.7145c0.6083-3.6318-9.534-14.1456-11.937-17c-1.9943-2.369-5.9308-4.8677-7.3089-7.5384
	c-0.4698-0.9104-2.4693-1.4284-2.7541-2.3986c-0.2716-0.9252,2.4341-1.6615,1.9453-3.0479
	c-1.1328-3.2129-0.3523-2.6964-3.0703-5.4521c-1.0546-1.0692-3.8754,1.7067-4.741-1.239c-0.7427-2.5273,2.2534-2.2606,3.241-3.136
	c3.2248-2.8585,4.6687,4.149,4.562-2.125c-0.0524-3.0793-4.7339-7.9185-6.379-10.6085c-2.5067-4.0988-7.0455-6.3707-9.433-10.0165
	c-1.3121-2.0037-0.4978-5.7042-1.456-7.8965c-1.4844-3.3959-5.0234-6.2087-7.3357-9.2387
	c-1.2223-1.6017-13.9946-20.5942-12.5393-21.6628c1.0894-0.7999,30.9333,38.8774,33.706,42.235
	c4.8954,5.928,14.686,21.416,21.7496,20.8198c2.4445-0.2064,4.5632-2.8387,7.0439-2.9897c3.1776-0.1935,7.7798,2.0109,10.8522,2.805
	c2.5956,0.6709,8.9437,3.6362,11.5383,2.9824c4.8212-1.2149,0.6619,1.3646,3.9725-4.0234
	c2.9182-4.7494,2.2908-11.1937,5.0857-16.1443c2.9172-5.1671,8.9438-5.0954,13.7066-7.5131
	c3.5605-1.8074,4.8474-2.2892,8.0552-4.1207c0.6294-0.3593,3.7426-3.2346,4.1095-3.3441c2.1932-0.6546,0.938,3.291,2.6365,3.0911
	c-1.1228,0.132,5.56-5.2703,5.4119-5.1001c2.2953-2.6369,3.6425-3.1428,4.2355-6.642c1.1534-6.8065-2.7186-7.1497-8.3354-10.9459
	c8.8328-7.5783,9.7112-9.1764,10.0627-17.875c0.2096-5.1864,1.5261-7.5078,0.2052-13.274
	c-1.1309-4.9366-2.4523-9.8356-3.7669-14.726c11.9985-1.8978,14.8516,1.5615,25.2613,8.0951
	c9.6419,6.0516,19.2838,12.1033,28.9257,18.1549c6.3729-13.0163,11.4909-25.0707,21.0624-35.906
	c6.1976-7.0159,5.9046-9.1495,14.7964-7.7258c6.9438,1.1118,14.0179,1.9354,20.8823,3.4493
	c18.4193,4.0622,36.6977,9.9211,54.8701,15.0087c9.673,2.7081,17.7175,5.9683,22.7463,15.7244
	c1.2632,2.4507,0.3441,6.0195,1.5804,8.1995C1068.342,655.5982,1077.0138,658.4114,1079.5649,659.8815
	C1079.0199,661.5325,1075.4069,657.4855,1079.5649,659.8815z"/>
<path class="neuhof-hildesheimer-wald-marienrode" fill="#A1A1A1" stroke="#FFFFFF" stroke-width="4" stroke-miterlimit="10" d="
	M576.29,798.3845c-2.7747,10.1895-8.0021,21.7559-8.8539,32.2629c-0.5263,6.4923,1.6191,6.6766,7.7408,10.2931
	c-12.4951,18.5478-21.9108,38.3652-37.692,54.433c-7.3174,7.4503-12.1557,17.5777-19.3152,24.6926
	c-4.7289,4.6994-15.217,5.8604-20.0598,13.8074c-1.1667-2.479-2.3333-4.9579-3.5-7.437c-4.1655,3.0092-8.3309,6.0184-12.4964,9.0276
	c-4.3643,3.1528-14.893,7.9889-17.4949,12.6387c-1.9614,3.5052-0.0499,5.5952,1.8121,10.3069
	c2.8285,7.1578,2.6339,5.3639-1.2053,11.1199c-3.8835,5.8225-8.9759,11.1169-13.3719,16.5615
	c-1.5937,1.9738-8.6185,8.1502-8.8066,10.9072c-0.3887,5.6965,21.3138,21.4384,10.136,24.8398
	c-6.1225,1.8631-8.7281-6.9091-12.8602-3.309c-0.9355,0.8151-1.1675,10.6594-2.0112,12.699
	c-1.8066,4.3676-4.8662,8.3646-7.2829,12.4417c-3.3347,5.6256-6.3948,14.4836-11.0955,19.005
	c-4.0842,3.9283-5.3392,4.1377-12.4482,3.1366c-15.7382-2.2164-31.2163-10.9883-47.0714-11.5645
	c-7.5344-0.2738-22.4425,1.0787-25.5276-8.6267c-1.6071-5.0559,2.1025-11.2046,2.286-16.4338
	c0.1428-4.0688,0.0998-9.7112-5.487-8.421c-2.5528,0.5895-3.0952,4.8483-5.7503,5.318c-4.4662,0.7902-14.8289-3.9509-19.0874-5.607
	c-17.1092-6.6537-34.0192-15.4489-48.8128-26.3431c-5.5094-4.0572-7.4409-4.503-12.7688-5.6192
	c-0.3119-0.0653-1.0864,1.0558-2.0488,0.9319c-1.2834-0.1652-2.3552-2.7784-3.652-2.7073c-2.601,0.1424-0.3799-0.4855-3.099,0.7657
	c-3.7166,1.7101-5.9558,11.7295-9.856,12.432c-2.1583,0.3887-8.3646-3.8343-10.2793-4.7119
	c-11.6544-5.3422-26.8958-16.186-39.5357-18.1227c-5.754-0.8816-1.2513-2.0229-6.6575,2.1595
	c-4.7883,3.7044-7.2211,8.3032-8.1344,13.7006c-1.8271,10.797-0.6644,21.5352-7.5134,30.6912
	c-3.9546,5.2867-9.5772,11.6502-14.8006,15.6485c-0.7718,0.5908-3.2244,4.1066-4.454,3.8218
	c-1.0555-0.2445-6.1824-13.2494-7.1329-14.6012c-6.6116-9.403-4.3328-8.5526,3.5283-16.4736
	c7.8658-7.9257,16.0828-15.5417,23.6762-23.7286c8.1567-8.7941,14.7016-18.9963,23.2398-27.374
	c4.937-4.8441,9.645-9.3962,10.9696-12.9677c1.58-4.2601,0.5491-6.7643,4.344-10.167c2.7435-2.46,4.4831-3.6536,7.0466-6.2818
	c5.3984-5.5348,7.2319-9.6625,14.039-13.0449c17.0371-8.4656,22.1648-18.861,27.5394-36.2983
	c7.8255,7.1662,10.621,0.9033,18.8697-4.9361c7.5641-5.3546,15.1282-10.7093,22.6923-16.0639
	c-3.0147-3.0147-7.2705-6.1009-9.6118-9.6118c-3.4064-5.1083-3.4796-12.3562-6.9825-17.8427
	c-2.6021-4.0756-9.8074-7.1998-8.8927-12.4145c0.5502-3.1366,8.3747-8.6262,10.4511-10.7181
	c14.4473-14.5549,28.6328-28.3116,39.8799-45.4617c4.2775-6.5226,14.5526-16.9597,16.1636-24.6472
	c1.3445-6.4157-3.328-16.3789-4.8131-23.2908c-4.9677-23.121-10.0869-46.2104-15.1475-69.3112
	c-1.5756-7.1925-1.8238-21.7153-6.0987-27.8276c-3.4746-4.9681-16.4117-6.9038-22.5103-9.0623
	c8.5063-10.2191,15.7452-22.7853,14.468-36.8337c-0.7245-7.9697-6.845-15.4011-7.8613-23.3494
	c-0.7904-6.1812,1.5771-12.7628,1.0742-18.9958c-1.1608-14.3876-11.0967-29.8766-4.9893-44.1457
	c3.0898-7.2189,0.8233-1.1613,5.121-5.05c1.6937-1.5325,2.4856-0.5052,4.1073-2.2142c1.4411-1.5187,2.6852-10.5529,3.1232-12.8689
	c1.3847-7.3211-5.412-30.6261,6.582-28.7924c0.4741,4.1042-2.1461,10.8878,1.0628,14.2155
	c2.9002,3.0077,9.6116-1.5602,13.1861,0.7847c4.2308,2.7753,1.5714,14.804,3.6727,20.6562
	c2.1637,6.0261,5.6016,6.9625,10.8463,2.4555c3.8679-3.3239,3.1275-2.3719,3.2675-8.8972
	c0.0527-2.4543-1.2294-10.9768,0.2776-12.9307c1.0436-1.3532,9.3405-3.545,10.5594-3.0911
	c5.6435,2.1013,9.817,15.5422,10.0081,20.8301c0.3413,9.4402-2.9395,18.8957-2.5648,28.3387
	c0.2057,5.1854,1.6671,10.2882,2.2065,15.4736c1.4373,13.8154-3.153,24.7509-4.557,38.3134
	c-0.7057,6.8171-1.6603,13.0048-1.0148,19.7984c0.3639,3.8297,0.9678,7.4207,0.981,11.3088
	c0.0103,3.043-1.9034,9.5801-1.0135,12.414c1.7598,5.6042,13.3923,13.2385,17.6512,17.39
	c7.1306,6.9508,14.2263,13.9376,21.306,20.9402c-1.1758-11.2983,6.2319-22.444,1.4951-32.9368
	c-1.8761-4.1558-12.4104-12.4847-9.2546-14.2318c4.8764-2.6996,21.2251,1.4675,26.8415,1.8557
	c7.535,0.5209,15.07,1.0419,22.6051,1.5629c-0.7924,10.111-1.5848,20.2221-2.3772,30.3331
	c-0.466,5.9462-1.6962,19.4957,3.2966,23.9067c3.1548,2.7872,0.4318,2.085,4.5762-2.519
	c4.8453-5.3826,10.3092-16.7833,16.318-19.7293c3.4468-1.69,8.975-0.6794,13.3062-1.7558
	c6.4966-1.6146,12.8719-3.4937,19.2241-5.6107c1.5667,5.25,2.4882,11.8574,5.3202,16.4792
	c4.4065,7.1913,7.1678,5.2537,14.2369,3.525c6.1467-1.5032,13.0803-4.3751,19.4071-4.7458c2.101-0.1232,7.0685,0.037,9.175,0.4461
	c2.7701,0.5378,2.5618,1.7596,5.3917,2.4516c-1.454,5.3262,3.0763,14.0046,3.9139,19.8378
	c1.2281,8.5527,2.8209,15.8573,5.2584,24.1426c4.9346,16.7736,14.8431,35.6415,8.2884,52.8594
	c-1.3057,3.4298-5.6869,7.7289-5.4852,11.4805c0.1588,2.9541,3.7175,4.7828,4.7126,7.6797
	c2.1147,6.1567-0.3058,16.5997-0.199,23.1223c0.1104,6.7419,0.1442,15.7863,6.4654,18.3766
	C563.3001,796.0645,569.7623,793.0253,576.29,798.3845z"/>
<path class="moritzberg-bockfeld" fill="#A1A1A1" stroke="#FFFFFF" stroke-width="4" stroke-miterlimit="3.864" d="
	M606.208,503.1945c6.0231,13.1853,17.8548,29.8767,29.7759,38.304c-5.7507,6.2499-12.1912,11.7166-17.7974,17.9589
	c-2.2042,2.4543-8.5381,7.8468-8.5146,11.9781c-11.6174-3.973,5.9497,32.2798,5.8198,34.0573
	c-0.5131,7.0238-14.9598,6.846-21.6323,8.3182c-5.0204,1.1076-12.3654,1.3353-16.9211,3.7333
	c-6.0659,3.1929-4.5712,2.1721-5.4449,10.6719c-1.6273,15.8299-0.2272,28.8753,1.811,44.6945
	c2.1816,16.9327,6.6888,33.2484,8.6454,50.2752c0.5485,4.7727,2.6019,11.7154,1.5853,16.4748
	c-0.3547,1.6605-2.7358,0.3708-3.4317,2.067c-1.1548,2.8151-1.2201,6.5996-1.7951,9.5938
	c-3.107,16.1796,2.1819,31.7527-2.1053,47.4891c-5.4904-6.6666-13.0934-2.8216-19.7017-5.5321
	c-5.9395-2.4362-6.2664-10.8403-6.4758-17.2908c-0.2275-7.0069,2.4706-17.6283,0.2084-24.208
	c-0.8829-2.5678-4.6518-4.6529-4.8718-7.2774c-0.3029-3.6147,4.4008-8.6155,5.6451-11.8829
	c6.3736-16.7377-2.9014-34.2719-7.64-50.5995c-2.625-9.0449-4.5727-17.1072-5.9075-26.4024
	c-0.8379-5.8348-5.3293-14.5586-3.9129-19.8378c-4.1552-0.8054-7.9633-3.4994-14.406-2.937
	c-6.4579,0.5637-13.269,3.2448-19.5679,4.7852c-6.8109,1.6655-9.1684,3.7584-13.5208-2.7314
	c-3.2974-4.9167-4.3215-11.5259-6.0363-17.2728c-6.3524,2.1161-12.7277,3.9954-19.2241,5.6102
	c-4.0985,1.0189-10.182,0.2241-13.3065,1.7563c-6.0273,2.9556-11.4409,14.3499-16.3178,19.7292
	c-3.6162,3.9888-1.4343,5.1844-4.5763,2.5191c-4.9479-4.1973-3.7458-18.1742-3.2966-23.9067
	c0.7924-10.111,1.5848-20.2221,2.3772-30.3331c-7.535-0.5209-15.0701-1.0419-22.6051-1.5629
	c-5.3008-0.3665-22.4088-4.6149-26.8415-1.8557c-2.9505,1.8367,7.3627,10.0776,9.2546,14.2318
	c4.7224,10.369-2.7452,21.7227-1.4951,32.9368c-7.4055-7.3243-14.827-14.6331-22.2897-21.8991
	c-4.8685-4.7401-14.6098-11.2805-16.6257-17.3212c-0.9428-2.8251,1.0862-10.0811,0.981-13.4025
	c-0.1684-5.3125-1.8849-10.5022-1.8245-15.7712c0.0727-6.3412,1.6984-13.8429,2.6292-20.1133
	c1.1219-7.5576,4.1909-14.1733,4.4468-21.8065c0.168-5.0104-0.6675-10.2084-1.206-15.1883
	c6.3851-0.2084,14.454,0.9487,20.5995-0.6725c0.7509-0.1981,0.4554-2.3532,2.64-3.0623c3.3548-1.0889,8.4536-0.1851,12.0234-0.2633
	c0,0.7083,0,1.4167,0,2.125c2.1007-0.012,9.5697,0.9962,11.0726-0.3447c2.8176-2.5138,3.3941-17.5839,3.8244-20.8574
	c0.7555-5.7475,1.0774-11.5169,2.2695-17.2028c1.794-8.5568,1.8872-8.0971,9.5845-9.9081
	c-2.9491-8.6475-7.889-16.2752-11.1753-24.7126c-2.9331-7.5304-0.9528-10.2988,0.1741-18.3601
	c0.6975-4.9894-2.7834-13.7309-0.888-18.0553c2.7562-6.2884,5.4991-2.6436,11.7155-1.4812
	c19.1788,3.5864,40.5806-0.9976,60.1409-0.0074c4.0968,0.2074,10.1877,2.4056,14.1072,1.8329
	c1.2029,0.3069,2.4248,0.4552,3.6658,0.4451c0.4454-1.0606,1.0883-1.9744,1.9289-2.7411
	c5.4563-0.4481,11.5437,3.0369,17.0825,3.2125c2.5503,0.0808,9.5084-2.1345,11.6614-0.5697
	c0.8715,0.6334,2.0752,9.6865,2.8611,11.2374c2.4967,4.9272,6.4478,8.4206,11.1499,11.1814
	c8.5867,5.0416,15.4154,4.003,24.4383,1.9269c10.9219-2.5131,20.1802-0.6302,29.8557,5.5513
	c13.3229,8.5117,8.014,22.3224,7.6468,35.3237c-0.1918,6.7889,1.4989,14.8607,2.4802,21.5805
	C599.9821,494.4582,602.6864,497.4278,606.208,503.1945C606.716,504.3065,605.521,502.0695,606.208,503.1945z"/>
<path class="sorsum" fill="#A1A1A1" stroke="#FFFFFF" stroke-width="4" stroke-miterlimit="3.864" d="M298.734,618.8735
	c-7.4167-2.625-14.8333-5.25-22.25-7.875c8.5068-10.2195,15.7455-22.7845,14.468-36.8337
	c-0.7246-7.9697-6.8452-15.4011-7.8613-23.3494c-0.7903-6.1816,1.5781-12.7635,1.0752-18.9968
	c-1.1607-14.3878-11.0978-29.8763-4.9904-44.1457c3.0898-7.219,0.8231-1.1614,5.121-5.05c1.6932-1.532,2.4861-0.5057,4.1073-2.2139
	c1.4411-1.5184,2.6862-10.5536,3.1241-12.8692c1.3846-7.3204-5.4131-30.6273,6.5811-28.7914
	c0.5087,4.4038-1.7934,8.8366,0.876,12.8678c2.3066,3.4833,3.5,2.5591,8.72,2.3333c-2.032-13.171-4.064-26.342-6.096-39.513
	c-4.8609,0.992-10.0843,2.7758-15.0203,3.0654c-3.1188,0.1829-3.6534-1.1893-5.9797-0.6914
	c-0.4876,0.1044-5.2289,3.0338-7.5307,3.5467c-4.8855,1.0887-9.7709,2.1775-14.6563,3.2663
	c-2.167-12.0833-4.334-24.1667-6.501-36.25c8.146-1.146,16.292-2.292,24.438-3.438c-0.3555-2.2157-1.2634-4.8708-1.1371-7.0872
	c0.3006-5.2718-1.9633-2.5509,2.3678-5.0515c5.3877-3.1106,18.9274-1.5253,25.2073-1.4864
	c-1.0619-5.6012-42.9663-2.4206-50.4218-2.4239c-19.5564-0.0086-38.4118-0.9019-57.8912-2.7632
	c1.6947,5.6822,3.5641,9.9686,4.7177,15.7363c0.3976,1.988-1.1388,4.6507-0.3232,6.4354c0.2156,0.4718,2.1115,3.1035,2.0425,2.8904
	c-0.2708-0.8363,6.691,1.4991,1.643,3.302c-0.0883,0.0316-8.9155-0.912-10.6926-0.68c-2.1483,0.2805-5.181,0.8231-6.758,0.408
	c-0.3556-0.0936,0.233-2.8797-0.6407-3.2308c-3.1651-1.272-7.3761-0.3259-10.6137-1.1742c-9.4849-2.4851-2.0617-2.6486-3.812-5.687
	c-3.9362-6.8329-11.0546-4.4175-18.4651-6.2334c-8.0997-1.9848-17.1079-5.7845-24.9521-7.1623
	c-4.6495-0.8166-12.9795-1.8983-18.6428-1.5305c-4.5239,0.2938-4.1334,2.8077-7.878,3.4452c-2.7355,0.4657-6.9839-0.8195-9.75-1.144
	c6.521,11.979,13.042,23.958,19.563,35.937c-10.953,1.0461-21.3029,4.1583-32.2765,4.9929
	c-6.2775,0.4774-7.1269-1.2601-7.1372,3.4214c-0.0112,5.1059,7.92,14.9249,10.2179,19.8166
	c2.6553,5.6526,11.6331,18.5227,10.9816,24.6196c-0.619,5.7924,1.8783,1.6982-3.2807,4.3719
	c-7.8213,4.0535-23.3132,2.5496-32.256,3.5276c1.3833,5.8717,2.7667,11.7434,4.15,17.6151
	c0.9575,4.0641,6.0629,15.7394,4.6447,19.7146c-0.6138,1.7204-3.3166,1.3534-4.8089,2.7317
	c-1.1736,1.084-3.6186,1.0577-4.7467,2.2881c-1.4276,1.5571-0.4882,4.2081-1.6394,5.9102
	c-3.6701,5.4271-11.8327,10.2206-17.0367,15.2403c9.0875,5.2828,17.8749,11.1829,27.7961,14.6323
	c8.3292,2.8959,7.1445,0.6547,6.3011,8.0649c-0.5884,5.1703-3.218,10.7267-4.7222,15.7408c3.2907,0.7995,7.5066,1.2109,10.5,2.812
	c-24.2812,44.8832-51.8694,89.1392-73.2717,135.441c-4.154,8.9867,2.3,14.1227,6.6877,22.8749
	c2.8089,5.6029,8.4287,15.3378,13.7922,19.032c6.7398,4.6422,12.647,3.7127,18.7758,9.5942
	c2.0608,1.9776,5.7093,7.1281,8.2839,7.9496c1.8185,0.5803,2.9027-1.488,4.2667-1.077c-0.307-0.0925,8.5454,4.3999,8.4025,4.2482
	c2.7738,2.9452,1.3187,7.622,2.6232,11.1571c0.6995,1.8955,3.9905,6.3956,5.1688,8.3144c2.0762,3.3809,1.6833,2.0269,5.021,5.0285
	c0.5692,0.5118,0.9411,3.0438,1.1288,3.1658c-0.749-0.4869,7.819,5.8909,3.9962,1.0212c1.9512,2.4855,4.8004,6.4398,5.2182,9.4957
	c0.2152,1.5742-0.9864,4.4319-0.6772,6.3823c0.5002,3.1547,3.9199,5.7087,5.563,8.75c0.6724,1.2444,0.007,3.5781,0.75,4.625
	c1.2577,1.7722,3.0613,2.1917,4.367,3.8755c1.5077,1.9443,3.4154,3.6353,4.3594,5.9685c0.2053,0.5074-2.2726,1.2851-1.6522,2.5505
	c0.6712,1.3693,3.1346,2.9036,3.3324,3.2522c0.3234,0.5698,2.1064,3.8187,2.9634,5.2894c1.6245,2.7876,0.7689,3.5265,4.401,6.1859
	c2.855,2.0905,5.4372,2.69,4.75,6.813c-0.0031,0.0187,4.7907,1.2343,5.5831,1.9363c3.5843,3.1758,3.0474,4.0579,5.1691,7.0198
	c3.124,4.3612,7.1543,8.1628,10.0562,11.5906c2.994,3.5366,6.1919,5.585,9.3268,8.8233c1.2002,1.2397-0.0111,3.5073,1.1559,4.5699
	c0.8559,0.7793,2.6759,0.2576,3.209,0.747c-0.045-0.0413,8.0058,3.6729,7.7501,3.2739c2.4075,3.7564,2.1054,9.0433,3.4159,14.2291
	c2.574,10.1855,5.7736,5.1301,13.125,8.438c5.8172,2.6175,4.811,10.3342,7.7111,15.0702c0.4971,0.8118,0.1674,2.8859,0.6803,3.8651
	c0.7482,1.4285,2.7365-1.2405,3.4217-0.0602c1.1588,1.996,0.2336,6.9532,1.396,8.309c1.3102,1.5344,3.8413-9.431,4.563-10.375
	c1.9598-2.5634,5.8051-2.9956,7.9331-4.8864c5.8507-5.1984,7.1537-11.0889,13.8789-14.6757c8.017-4.2757,17.7377-9.4,22.606-17.624
	c3.3832-5.7153,4.6921-13.6029,6.644-19.939c7.8266,7.1658,10.6213,0.9037,18.8707-4.9361
	c7.5641-5.3546,15.1282-10.7093,22.6923-16.0639c-2.644-2.644-5.8988-5.1779-8.1482-8.1482
	c-3.9098-5.1629-4.2873-11.0743-7.38-17.0042c-5.2201-10.0087-14.1797-10.5376-4.5711-20.326
	c12.9904-13.2336,28.0251-25.8935,38.7123-41.0682c5.9644-8.4689,11.3924-17.3722,17.0729-26.0345
	c6.3871-9.7396,4.7005-11.5366,2.1373-23.7061c-3.5081-16.656-7.2032-33.2734-10.8417-49.9015
	C306.9347,656.2881,302.836,637.5804,298.734,618.8735z"/>
<path class="himmelsthuer" fill="#A1A1A1" stroke="#FFFFFF" stroke-width="4" stroke-miterlimit="3.864" d="
	M302.546,368.1235c0.0833,0.729,0.1667,1.458,0.25,2.187c-6.2432-0.0381-19.9146-1.5771-25.2068,1.4864
	c-4.0741,2.3584-1.7851-0.7641-2.5504,3.91c-0.3813,2.3286,0.9384,5.849,1.3202,8.2286c-8.146,1.146-16.292,2.292-24.438,3.438
	c2.1667,12.0833,4.3333,24.1667,6.5,36.25c4.8854-1.0887,9.7709-2.1775,14.6563-3.2663c2.3823-0.5309,7.0548-3.4446,7.5316-3.5467
	c2.2461-0.481,2.8183,0.876,5.9797,0.6904c4.9361-0.2899,10.1592-2.0733,15.0203-3.0654
	c1.4572,9.2097,2.9145,18.4195,4.3717,27.6292c0.3956,2.5003,0.3153,9.5433,1.8407,11.6334
	c1.1874,1.627,4.5565-0.4698,6.1306,1.8074c3.6414,5.268-2.6474,22.0318,6.1136,24.4764c1.4511,0.4049,9.1274-3.6413,9.9286-5.0216
	c2.2538-3.8832-1.0207-11.917,0.3478-16.2036c1.2663-3.9665,1.0842-6.4686,7.7185-6.2963c4.3566,0.1132,3.4117,0.2334,6.5651,5.075
	c1.8936,2.9074,5.8747,6.9584,6.7334,10.3381c1.5424,6.0701-1.3681,15.979-2.0103,22.2537
	c-0.3653,3.5692-2.993,18.6062,1.1569,21.2706c1.9841,1.2738,13.0444-0.2471,15.1546-0.6158
	c1.5522-0.2711,3.4982,0.2094,5.0353-0.2046c1.463-0.394-0.6125-2.5083,1.0258-3.0302c3.8482-1.226,9.5712-0.2096,13.6377-0.2986
	c0,0.7083,0,1.4167,0,2.125c2.1006-0.012,9.5688,0.9961,11.0716-0.3447c2.8176-2.5136,3.3941-17.584,3.8244-20.8574
	c0.7555-5.7474,1.0777-11.5169,2.2698-17.2028c1.794-8.5569,1.8867-8.097,9.5842-9.9081
	c-2.9491-8.6474-7.8892-16.2752-11.1754-24.7126c-2.9328-7.5301-0.9526-10.299,0.1741-18.3601
	c0.7489-5.3584-1.8289-11.5481-0.7602-16.7015c1.2664-6.1068,1.4501-3.9778,6.6984-4.0378
	c5.7491-0.0658,11.748,2.1121,17.7681,1.9742c5.615-0.1286,11.2146-0.6559,16.8366-0.7555
	c8.9109-0.1578,17.8613-0.3265,26.7686-0.0902c5.0935,0.1352,10.1042,1.123,15.1346,1.3479c2.8219,0.1262,6.0629-0.7681,7.35-0.8044
	c4.1172-0.1163,9.3282,0.8477,14.2089,1.6536c6.5333,1.0787,8.63,1.6241,11.6052-3.1536
	c3.2664-5.2453,0.5925-17.9648-1.0191-25.0462c-3.7365-16.4187-12.1496-34.5203-10.6629-51.733
	c1.006-11.6466,8.6629-16.7929,3.448-28.5179c-2.0175-4.5359-4.5753-9.1293-7.1075-13.4233
	c-2.3044-3.9079-13.4473-26.8496-17.3305-14.0767c-8.1176-9.5123-15.6936-20.2503-26.625-26.75c1.9085,0.2892,4.0625-0.7517,6-0.688
	c-2.7139-12.2045-5.3169-24.4323-7.809-36.684c-1.8336-9.0145-1.0885-17.6918-8.1496-21.9846
	c-4.0545-2.4649-4.4671-0.4367-6.5853-4.0103c-1.4306-2.4136-1.4791-7.3933-1.7126-10.2116
	c-0.6436-7.7714-2.0214-12.5484-5.0145-19.9736c-5.8712,2.1634-18.4734-7.7334-23.723-10.4498
	c-8.856-4.5827-17.712-9.1654-26.568-13.7481c6.8094-3.6127,11.8434-4.4557,19.546-5.5189
	c-0.6404-2.8687-1.2807-5.7374-1.921-8.6061c-5.9201,3.7245-11.5434,5.9278-18.625,5.625
	c4.4728,5.4249-6.9164,10.2542-11.7085,10.75c-6.6304,0.686-8.9262-3.1346-13.9579-6.9497
	c-1.6641-1.2617-1.2971-4.3769-3.5321-3.6428c-2.6264,0.8627-0.048,6.2415,0.6291,7.8351c3.721,8.7579,4.5021,6.2643-3.1806,13.4444
	c-8.5309-13.4665-18.3006-26.3309-26.125-39.812c-6.9362,5.5865-8.1474,4.3873-5.783,13.4976
	c2.1496,8.2826,6.3472,15.0343,10.158,22.6274c-2.4793,1.1457-4.9587,2.2914-7.438,3.437c-0.5972-4.4921,0.1964-10.9305-3.812-13.75
	c-1.4793,2-2.9587,4-4.438,6c7.9105,3.2419-0.6783,6.5024-1.5194,8.504c-0.5753,1.3691,2.2973,4.204,1.3664,5.1601
	c-2.2725,2.3341-5.8188,1.5806-8.909,1.8989c-4.6943,0.4836-13.6159,1.1504-15.0492,5.7294
	c-1.4023,4.4802,5.3047,11.3525,4.4729,16.0253c-0.6495,3.6486-5.9229,7.1747-7.8273,10.4742
	c-3.2894,5.6992-2.9657,2.5544-0.5553,8.6325c3.2969,8.3135,9.7095,15.3497,12.7404,23.7711
	c6.2844,17.4614,11.0853,39.224,14.3742,57.5571c1.4405,8.0293,1.282,16.4861,1.7354,24.638
	c0.3887,6.9884,3.7103,20.774,0.1504,26.3997c-3.1295,4.9456-12.2551,6.1458-15.9714,10.7146
	c-3.5084,4.3133-1.7868,8.0579-0.9057,14.3633C299.1287,348.6276,300.8514,358.3939,302.546,368.1235z"/>
<path class="stadtmitte-neustadt" fill="#A1A1A1" stroke="#FFFFFF" stroke-width="4" stroke-miterlimit="3.864" d="
	M605.786,502.2195c5.5209,13.5851,18.2078,30.7317,30.198,39.278c-6.775,7.3596-14.3051,14.6519-20.3799,21.4921
	c-1.9702,2.2183-6.6415,5.0131-5.9332,8.4459c1.1204,5.4297,13.3642,2.5859,15.5439,3.9267
	c1.8727,1.1519,5.6877,12.1454,6.7774,14.6385c1.8574,4.2495,2.3057,8.7952,5.3522,12.631
	c6.5413,8.236,16.4311,15.1118,24.2913,22.2891c9.707,8.8636,18.2608,18.9907,25.2022,30.2122
	c7.8774,12.7347,6.5991,30.4203,15.5174,42.1664c7.6409,10.0636,27.2778,1.2921,37.7996-1.5958
	c11.7743-3.2317,16.4968,1.8107,27.579,5.7319c-1.628-8.8292-4.8012-11.4012-10.0935-18.7769
	c-1.2934-1.8026-12.5768-19.0363-11.2375-20.0211c1.1119-0.8165,15.7435,19.3589,17.2079,21.142
	c-3.894-21.3165-7.4222-42.743-11.1301-64.1011c-5.1448-29.6361-11.4141-57.6684-8.5599-87.9308c-2.5,0.6043-5,1.2086-7.5,1.813
	c-0.9494-3.8093-0.9657-7.7981,0.546-11.44c-6.8016-0.2722-5.0591-5.9578-5.9531-12.2715
	c-1.1816-8.345-2.3631-16.6899-3.5447-25.0349c-0.3324-2.3477-0.3202-14.0974-2.2151-15.6448
	c-5.332-4.3541-24.0212,5.5413-28.9602-3.9643c-3.4506-6.6409,18.5891-37.1659,21.0025-46.5881
	c3.1069-12.1292,1.9661-24.5181,4.6876-36.6183c2.3787-10.5762,7.6011-20.3936,12.491-29.9821
	c-21.5415-4.4673-39.408,5.569-58.5942,13.8016c-22.8642,9.8107-45.717,19.6831-68.6517,29.3254
	c2.3296,4.7017,9.1272,16.3065,5.5831,21.4377c-0.9519,1.3782-11.2036,2.0029-13.7252,2.912
	c-6.0217,2.1708-11.8011,5.1595-17.7279,7.5814c17.4816,6.7636,17.2091,17.7712,15.5237,34.385
	C595.4778,475.309,598.2626,491.0667,605.786,502.2195C606.331,503.5605,605.359,501.5865,605.786,502.2195z"/>
<path class="nordstadt" fill="#A1A1A1" stroke="#FFFFFF" stroke-width="4" stroke-miterlimit="3.864" d="M434.151,144.3225
	c7.036-2.8493,14.072-5.6986,21.108-8.548c1.2833,4.179,2.5667,8.358,3.85,12.537c4.2657-1.7462,8.5315-3.4923,12.7972-5.2385
	c3.205-1.3119,15.0335-3.953,16.8384-6.8927c1.4005-2.281-1.9431-8.3215-3.6353-11.0404c-3.5086-5.6372-0.8917-4.1901-7.0622-3.6404
	c-4.7053,0.4192-3.8548,4.9029-8.3753,0.6406c-9.4472-8.9076,12.5673-21.3148,17.5135-26.7169
	c3.7631-4.11,5.1249-6.2152,5.3619-11.7705c0.1399-3.2795-3.1199-8.0095-1.0788-11.3017c2.2404-3.6136,7.343-3.7823,9.8906,1.2105
	c-1.2553-8.5226-7.1404-18.1895-10.562-26.437c7.025,0.0346,14.254-2.1371,21.1281-3.3832
	c9.7474-1.7669,23.2711-1.7321,32.2785-5.8511c2.598-1.188,3.6223-4.729,6.1553-5.5157c2.9421-0.9137,6.6752,2.422,9.4355,3.1588
	c4.0385,1.0779,7.9652,0.7739,11.929-0.3026c8.9456-2.4295,17.0494-5.9447,26.2888-7.6631
	c11.283-2.0984,22.5661-4.1969,33.8491-6.2953c4.8691-0.9056,12.5795-3.933,15.8172-1.2728
	c5.225,4.2931,8.3801,22.993,10.6942,29.3424c2.6299,7.2159,5.3757,14.3666,7.5677,21.72
	c5.689,19.0844,13.4229,39.0289,13.8565,59.0626c5.7137-1.6462,18.7592-8.3325,24.2472-6.986
	c4.5432,1.1147,5.4105,10.8671,7.0648,16.423c-5.3045,1.5586-20.819,3.6481-23.2181,7.9105
	c-2.3129,4.1092,1.1826,11.6242-0.456,16.0971c-1.5208,4.1513-3.5148,4.8814-7.8879,7.6804
	c0.1052,0.002-0.9614,26.6325-0.4751,30.75c1.1876,10.0569,4.3988,22.8703,7.7179,31.9177
	c3.6479,9.9438,15.0583,13.7333,20.615,23.5675c4.8446,8.5739,5.972,18.8356,11.2373,27.1292
	c6.2195,9.7966,17.2292,19.3298,26.6539,25.1727c0.721-6.6709,8.5133-2.3169,11.7581-6.058
	c-2.5608,13.4929-11.4176,26.6137-17.704,38.763c-5.53,10.6873-4.3379,8.6189-15.141,8.133
	c-9.2403-0.4156-16.9589,1.9621-25.3329,5.4087c-30.7124,12.6407-61.0325,26.2401-91.647,39.1113
	c3.0038,6.0345,9.4489,18.1905,3.5177,21.7778c-4.1829,2.5298-13.4468,3.3276-18.5634,5.5348
	c-2.4504,1.0571-8.2221,4.6081-10.8683,4.6615c-3.0967,0.0624-6.7986-3.2215-10.0181-3.6676
	c-13.6099-1.8859-23.1364,7.5899-36.7634-0.4077c-6.1944-3.6354-10.395-8.4253-12.6057-15.3286
	c-1.605-5.0119-0.5287-8.8629-7.2249-7.32c1.4981-4.8751,3.9489-3.4158,3.4379-10.5115
	c-0.7213-10.017-3.2324-19.1044-6.1899-28.5956c-4.3557-13.9784-9.6819-35.5491-4.7791-49.3509
	c3.8561-10.8552,4.8371-12.7932-0.689-23.6793c-1.8161-3.5776-3.6973-7.1113-5.7491-10.5522
	c-2.1435-3.5948-12.8622-25.6681-16.687-13.0806c-8.1176-9.5123-15.6936-20.2504-26.625-26.75c1.9085,0.2892,4.0625-0.7517,6-0.688
	c-2.7138-12.2048-5.3168-24.4331-7.809-36.685c-1.8336-9.0139-1.0892-17.6908-8.1503-21.9836
	c-4.0543-2.4648-4.4666-0.4368-6.5846-4.0103c-1.4306-2.4137-1.479-7.3932-1.7126-10.2116
	C438.5213,156.5255,437.1432,151.7469,434.151,144.3225z"/>
<path class="drispenstedt" fill="#A1A1A1" stroke="#FFFFFF" stroke-width="4" stroke-miterlimit="3.864" d="M885.39,267.2795
	c-8.2349,4.4745-16.4697,8.949-24.7045,13.4235c-6.5056,3.5349-18.8924,15.4058-20.3895,2.6395
	c-15.0286,4.4472-30.261,10.3979-45.5327,13.8316c-8.9178,2.0051-18.0436,2.2634-27.1503,4.3274
	c-5.0297,1.14-10.4626,3.4911-14.5585,4.4979c-3.2169,0.7907-6.7124-1.6146-7.7584,3.7871
	c-9.2964-5.7639-20.2729-15.1668-26.3507-24.8765c-4.9293-7.8749-6.3162-17.2956-10.5243-25.5995
	c-5.5192-10.8909-17.2943-15.0143-21.6312-25.3935c-3.5745-8.5544-6.3801-21.8375-7.6299-31.5435
	c-0.5433-4.2196,0.422-31.1243,0.3861-31.125c3.3785-2.1621,6.5677-3.3911,7.8619-6.7321
	c1.8325-4.7303-1.9818-12.6674,0.482-17.0453c2.4218-4.3031,18.0086-6.3797,23.2191-7.9106
	c-1.6235-5.4512-2.5388-15.4258-7.0658-16.423c-5.7689-1.2707-18.3422,5.2846-24.2472,6.986
	c-0.1725-8.0146-1.5854-15.0432-3.312-22.8899c26.4734-5.3718,55.9005-8.2583,80.6213-15.7694
	c27.1039-8.2351,54.7285-15.3011,82.1036-23.2527c1.5917,10.3247,3.1833,20.6493,4.775,30.974
	c-0.9167,0.021-1.8334,0.042-2.75,0.063c1.8123,23.4584,3.6246,46.9167,5.437,70.3751c-1.671-0.2794-3.6808,0.5636-5.312,0.125
	C859.8062,200.7416,872.0541,233.2826,885.39,267.2795z"/>
<path class="einum" fill="#A1A1A1" stroke="#FFFFFF" stroke-width="4" stroke-miterlimit="3.864" d="M1067.908,205.1165
	c-3.3823,7.8853,26.2493,12.9431,32.0206,14.7913c4.9761,1.5935,25.5465,3.9336,27.9642,6.4485
	c1.7186,1.7876,1.5367,10.6421,1.8726,12.9682c1.2303,8.5204,2.4607,17.0408,3.691,25.5612
	c1.7382,12.0373,3.4763,24.0746,5.2145,36.1119c7.324-7.6088,13.2823-13.7942,23-17.937
	c2.1056,6.7312,3.3114,18.5035,7.4989,23.9732c3.5844,4.6819,4.6478,2.815,12.1086,1.5932c10.381-1.7,20.762-3.4,31.1429-5.0999
	c8.8724-1.453,7.7529-1.8166,9.5737,7.3959c4.0002,20.2393,8.4642,43.6517,5.3188,64.2118
	c-1.4828,9.6915-5.0797,19.3081-7.3301,28.863c-1.4694,6.2388-6.2783,40.4583-11.875,39.5c1.3124-5.146,2.6246-10.292,3.937-15.438
	c-19.125-3.3956-38.25-6.7913-57.375-10.187c0,4.4954,1.3811,10.28-1.7213,12.0946c-3.5474,2.0749-13.8564,0.2631-18.0287,0.3423
	c0.021-6.1663,0.042-12.3326,0.063-18.499c-4.106,0.0325-21.1167,2.699-23.625,0.187c-3.382-3.3869-0.9115-19.988-1.621-25.06
	c-0.7361-5.2621-1.6873-13.7487-6.1384-15.6357c-4.4868-1.9021-14.0575-0.0627-18.8342-0.084
	c-35.1355-0.1567-70.2709-0.3135-105.4064-0.4703c0.1873,6.5833,0.3746,13.1667,0.562,19.75
	c-9.3893-2.5531-19.9552-4.0898-28.8984-7.8579c-4.6249-1.9486-3.6725-0.3868-5.4896-3.7848
	c-2.1006-3.9281-0.7911-13.3549-1.0547-17.8069c-0.5939-10.0272-3.9086-15.1958,7.2047-16.5435
	c10.1879-1.2355,20.9086-0.633,31.176-0.9439c-3.1501-3.3639-3.2501-2.8675-4.9751-7.5478
	c-2.3401-6.3489-2.0258-15.2203-2.7515-21.9228c-0.8428-7.7847-1.9751-15.8224-1.2103-23.6582
	c0.4852-4.9719,4.2253-11.7333,3.7977-16.4916c1.5491-1.7778,1.5869-3.0757,0.1135-3.8935
	c-1.0447,0.7512-1.9709,0.7279-2.7783-0.0701c0.4213-2.4825,3.8814-1.5201,4.3815-3.4859c0.6238-2.4521-0.8362-7.0357-1.1285-9.4953
	c-0.9818-8.2606-3.6355-17.8157-3.101-26.0912c0.4671-7.2322,0.3371-4.8998,8.545-7.5951
	c5.7034-1.8728,10.5265-4.6045,15.8569-7.499c12.4828-6.7783,20.9093-6.9877,35.3083-8.0349
	C1047.2067,206.8814,1056.62,204.8238,1067.908,205.1165z"/>
<path class="ochtersum" fill="#A1A1A1" stroke="#FFFFFF" stroke-width="4" stroke-miterlimit="3.864" d="M574.9219,840.9365
	c-9.04-5.5339-8.6187-6.1703-5.9742-15.7786c3.0006-10.9022,7.3989-22.2327,9.135-33.4077
	c2.0927-13.4701-2.4464-26.5134,0.2263-40.4283c0.5786-3.0124,0.6295-6.7887,1.7954-9.5941
	c0.4565-1.0984,3.301-0.9031,3.4456-1.4802c1.2173-4.8621-1.0369-12.1625-1.5997-17.0611
	c-2.0079-17.4785-6.5781-34.255-8.8225-51.6476c-1.9727-15.2865-3.2068-28.0049-1.6343-43.322
	c0.8936-8.7032-0.8497-7.7867,5.4449-10.6725c4.907-2.2496,11.637-2.5674,16.9211-3.7333
	c6.6907-1.4762,21.1146-1.2228,21.6323-8.3179c0.4813-6.5966-20.1193-34.665-4.7755-33.7376
	c1.7907,0.1083,7.8055,2.9784,9.4128,3.5497c2.9379,1.0443,2.9144-1.3691,5.442,0.7966c3.3749,2.8917,5.5984,13.2847,7.1306,17.2528
	c4.0786,10.5634,12.6724,17.0142,21.1164,24.5322c11.4272,10.1741,21.1204,20.2559,29.9974,32.7957
	c9.8979,13.9819,8.4007,33.7073,18.5409,46.6179c8.468,10.7817,29.2665-0.077,40.6768-2.4083
	c9.3242-1.9051,19.2019,2.4389,27.0036,7.9913c4.9147,3.4977,7.6561,9.0154,10.7403,14.2521
	c8.6194,14.6353-6.015,1.9597-5.034,10.1869c0.3405,2.8563,6.8291,0.6808,8.398,4.8c0.975,2.5601-1.9323,3.6154-0.6246,6.6014
	c3.1815,7.2646,13.338,12.895,17.1456,20.6507c2.8928,5.8923,2.9213,2.9294-0.0118,7.7001
	c-2.8026,4.5583-8.2332,8.5574-11.9356,12.4056c-7.5305,7.827-15.0611,15.6541-22.5916,23.4812
	c-8.8782-8.9678-17.8323-17.8611-26.826-26.713c-3.8941,10.6194-6.0726,23.0139-11.438,32.938
	c-3.9005-4.019-7.8445-7.992-11.7783-11.9776c-3.5732-3.6203-11.17-15.2051-15.9651-16.3839
	c-3.6385-0.8945-17.1365,5.6797-21.8225,6.7874c-4.4927,1.0621-11.2511,1.0458-15.2373,3.2149
	c-1.2002,0.6531-3.1257,0.3259-4.2588,1.1092c-0.502,0.3469,2.2071,4.614-0.125,5.173c-1.7994,0.4308-1.7812-4.0046-2.1929-3.9692
	c0.5476-0.0471-2.774-0.1122-2.9864-0.1522c-3.811-0.7184-10.6932,1.8446-14.548,2.9121
	c-8.2635,2.2886-17.3709,5.1183-24.7007,9.5099C598.9778,814.5566,585.0857,825.8425,574.9219,840.9365z"/>
<path class="oststadt-stadtfeld" fill="#A1A1A1" stroke="#FFFFFF" stroke-width="4" stroke-miterlimit="3.864" d="
	M843.234,290.1855c-1.4606-1.9476-2.6541-4.4216-2.938-6.843c-17.5065,5.1805-36.3583,13.5929-54.4556,14.8915
	c-6.8206,0.4894-12.9064,2.0696-19.588,3.5675c-3.6725,0.8233-7.4288,0.9365-9.4476,3.3842
	c-1.4875,1.8035-2.3982,7.4771-3.4875,9.8536c-5.1785,11.2987-11.3416,22.2164-17.0043,33.279
	c-5.7796,11.291-12.261,22.9965-14.6971,35.6637c-2.896,15.0587-1.3527,30.1009-7.4767,44.6305
	c-4.0741,9.666-16.9905,22.7838-17.5808,33.2153c-0.7847,13.8677,22.6918,2.4382,28.6958,7.3415
	c3.4584,2.8243,3.2977,23.2907,3.9209,27.6922c1.0076,7.1158-0.308,24.9348,7.792,25.259c-1.5297,3.644-1.4468,7.6398-0.546,11.44
	c7.9623-1.9247,6.2361-0.9193,8.1917-7.9047c1.945-6.9475,3.6797-13.545,6.4838-20.2054
	c3.0454-7.2336,6.3151-14.3812,9.5223-21.5436c1.069-2.3873,2.1426-4.7726,3.2153-7.1584c3.7364-8.3107,4.5663-8.334,13.562-9.688
	c25.4476-3.8302,49.2848,0.0062,74.6606,3.1188c14.4129,1.7679,28.5578,4.9859,42.7719,7.8985
	c12.892,2.6417,13.0376,3.576,12.3246-8.7426c-0.2747-4.7463-3.7486-22.7623-0.7579-25.7009
	c5.4647-5.3693,27.8226-0.4041,34.5269,0.1752c-4.7939-14.8508-9.5663-29.7088-14.2844-44.5839
	c-2.5607-8.073-5.449-16.1377-7.5839-24.3366c-0.7794-2.993-2.1872-6.2827-1.304-9.3835c0.8499-2.9838,4.0718-3.7006,5.1761-6.1958
	c1.9003-4.294,0.9395-3.8465,0.6404-8.8794c-0.2717-4.57,1.218-2.6017-0.4492-7.678c-0.6835-2.0811-5.4301-9.9447-7.1709-11.1233
	c-6.2704-4.2455-8.1191,1.4979-12.2752-6.3814c-2.0532-3.8924-2.7452-9.5145-3.9872-13.7018
	c-4.6638-15.7237-10.0663-31.2179-15.2645-46.7615C886.4479,270.8505,850.1542,286.4254,843.234,290.1855z"/>
</svg>
